<?xml version="1.0" encoding="iso-8859-1"?>
<!-- Generator: Adobe Illustrator 19.0.0, SVG Export Plug-In . SVG Version: 6.00 Build 0)  -->
<svg version="1.1" id="Capa_1" xmlns="http://www.w3.org/2000/svg" xmlns:xlink="http://www.w3.org/1999/xlink" x="0px" y="0px"
	 viewBox="0 0 512 512" style="enable-background:new 0 0 512 512;" xml:space="preserve">
<path style="fill:#E29C6D;" d="M512,230.678c0,140.083-112.515,253.884-252.086,255.966c-1.308,0.023-2.605,0.034-3.914,0.034
	c-141.38,0-256-114.608-256-256L512,230.678L512,230.678z"/>
<path style="fill:#C97F4C;" d="M512,230.678c0,140.083-112.515,253.884-252.086,255.966
	c117.669-54.022,133.7-189.133,134.042-255.966L512,230.678L512,230.678z"/>
<ellipse style="fill:#BADB47;" cx="256" cy="230.679" rx="256" ry="68.34"/>
<path style="fill:#FFEEE1;" d="M452.972,230.678c0,8.602-14.279,16.543-38.434,22.972c-35.863,9.535-93.525,15.724-158.538,15.724
	s-122.675-6.19-158.538-15.724c-24.155-6.428-38.434-14.37-38.434-22.972c0-21.367,88.189-38.684,196.972-38.684
	C364.783,191.993,452.972,209.311,452.972,230.678z"/>
<path style="fill:#FEDFC5;" d="M414.538,253.649c-35.863,9.535-93.525,15.724-158.538,15.724s-122.675-6.19-158.538-15.724
	c35.863-9.546,93.525-15.735,158.538-15.735S378.675,244.104,414.538,253.649z"/>
<g>
	<path style="fill:#AA6344;" d="M440.031,326.522c-4.25,0-7.705-3.435-7.725-7.69c-0.02-4.267,3.423-7.742,7.689-7.763h0.106
		c0.013,0,0.025,0,0.038,0c4.25,0,7.705,3.435,7.725,7.69c0.02,4.267-3.423,7.742-7.689,7.763l-0.106,0.001
		C440.056,326.522,440.044,326.522,440.031,326.522z"/>
	<path style="fill:#AA6344;" d="M447.526,349.278h-0.106c-4.268,0-7.726-3.459-7.726-7.726s3.459-7.726,7.726-7.726h0.106
		c4.268,0,7.726,3.459,7.726,7.726S451.794,349.278,447.526,349.278z"/>
</g>
<path style="fill:#E29C6D;" d="M405.049,366.388h-0.106c-4.268,0-7.726-3.459-7.726-7.726s3.459-7.726,7.726-7.726h0.106
	c4.268,0,7.726,3.459,7.726,7.726C412.776,362.928,409.317,366.388,405.049,366.388z"/>
<path style="fill:#83D9FF;" d="M324.117,144.031c0,37.62-30.497,68.117-68.117,68.117s-68.117-30.497-68.117-68.117
	c0-28.741,39.757-87.6,58.524-113.784c4.708-6.568,14.479-6.568,19.187,0C284.361,56.431,324.117,115.29,324.117,144.031z"/>
<path style="fill:#64BDFF;" d="M324.117,144.031c0,37.62-30.497,68.117-68.117,68.117c-19.595,0-37.254-8.268-49.679-21.509
	c4.441,0.685,9,1.039,13.642,1.039c49.171,0,89.035-39.864,89.035-89.024c0-1.193-0.047-2.421-0.154-3.685
	C317.715,116.132,324.117,132.503,324.117,144.031z"/>
<g>
</g>
<g>
</g>
<g>
</g>
<g>
</g>
<g>
</g>
<g>
</g>
<g>
</g>
<g>
</g>
<g>
</g>
<g>
</g>
<g>
</g>
<g>
</g>
<g>
</g>
<g>
</g>
<g>
</g>
</svg>
